# xmcd
#
# Track frame offsets: 
#        182
#        11802
#        23192
#        36317
#        49145
#        60337
#        70205
#        81612
#        93537
#        104350
#        116387
#        127265
#
# Disc length: 1851 seconds
#
# Revision: 1
# Processed by: cddbd v1.4PL0 Copyright (c) Steve Scherf et al.
# Submitted via: ExactAudioCopy v0.95a2
#
DISCID=a807390c
DTITLE=Patsy Cline - Best Of Patsy Cline
DYEAR=1991
DGENRE=Country
TTITLE0=Walkin' After Midnight
TTITLE1=Just Out Of Reach
TTITLE2=Life's Railway To Heaven
TTITLE3=Just a Closer Walk With Thee
TTITLE4=Stop The World (And Let Me Off)
TTITLE5=I'm Blue Again
TTITLE6=Cry Not For Me
TTITLE7=Let The Teardrops Fall
TTITLE8=Got A Lotta Rhythm In My Soul
TTITLE9=Today, Tomorrow And Forever
TTITLE10=I Can See An Angel
TTITLE11=A Poor Man's Roses (Or A Rich Man's Gold)
EXTD=
EXTT0=
EXTT1=
EXTT2=
EXTT3=
EXTT4=
EXTT5=
EXTT6=
EXTT7=
EXTT8=
EXTT9=
EXTT10=
EXTT11=
PLAYORDER=
